# xmcd
#
# Track frame offsets:
#	150
#	16264
#	35927
#	50284
#	66219
#	81519
#	95237
#	111503
#	130976
#	151294
#	166294
#	184881
#	203097
#
# Disc length: 3017 seconds
#
# Revision: 0
# Processed by: cddbd v1.5.2PL0 Copyright (c) Steve Scherf et al.
# Submitted via: audiograbber 1.83.01
#
DISCID=bb0bc70d
DTITLE=Indigo Girls - Beauty Queen Sister
DYEAR=2011
DGENRE=Country
TTITLE0=Share The Moon
TTITLE1=John
TTITLE2=Beauty Queen Sister
TTITLE3=We Get To Feel It All
TTITLE4=War Rugs
TTITLE5=Gone
TTITLE6=Mariner Moonlighting
TTITLE7=Birthday Song
TTITLE8=Feed And Water The Horses
TTITLE9=Making Promises
TTITLE10=Damo
TTITLE11=Able To Sing
TTITLE12=Yoke
EXTD=
EXTT0=
EXTT1=
EXTT2=
EXTT3=
EXTT4=
EXTT5=
EXTT6=
EXTT7=
EXTT8=
EXTT9=
EXTT10=
EXTT11=
EXTT12=
PLAYORDER=
